# xmcd
#
# Track frame offsets: 
#        150
#        17945
#        28634
#        57420
#        69156
#        92829
#        114283
#        140056
#        154561
#        172889
#
# Disc length: 2635 seconds
#
# Revision: 0
# Processed by: cddbd v1.5.2PL0 Copyright (c) Steve Scherf et al.
# Submitted via: ExactAudioCopy v0.95b4
#
DISCID=7b0a490a
DTITLE=Bill Withers - Maiking Music
DYEAR=1975
DGENRE=Soul
TTITLE0=I Wish You Well
TTITLE1=The Best You Can
TTITLE2=Make Love To Your Mind
TTITLE3=I Love You Dawn
TTITLE4=She's Lonely
TTITLE5=Sometimes A Song
TTITLE6=Paint Your Pretty Picture
TTITLE7=Family Table
TTITLE8=Don't You Want To Stay?
TTITLE9=Hello Like Before
EXTD=
EXTT0=
EXTT1=
EXTT2=
EXTT3=
EXTT4=
EXTT5=
EXTT6=
EXTT7=
EXTT8=
EXTT9=
PLAYORDER=
